<svg class="svg-icon" style="width: 1em; height: 1em;vertical-align: middle;fill: currentColor;overflow: hidden;" viewBox="0 0 1024 1024" version="1.1" xmlns="http://www.w3.org/2000/svg"><path d="M651.0592 321.536h99.4304c12.1856 0 18.3296-14.9504 9.6256-23.552L643.1744 180.9408c-8.6016-8.6016-23.2448-2.4576-23.2448 9.8304v99.2256c-0.1024 30.0032 31.1296 31.5392 31.1296 31.5392z"  /><path d="M765.0304 373.0432H645.4272s-76.4928-5.9392-76.4928-77.312V174.1824c0-12.4928-10.0352-22.528-22.3232-22.528H262.144s-25.4976 1.7408-25.4976 25.8048v669.184S238.3872 872.448 262.144 872.448h499.712s25.4976 0.1024 25.4976-25.8048V395.5712c0-12.4928-10.0352-22.528-22.3232-22.528zM633.0368 727.552H391.9872c-12.288 0-22.3232-10.1376-22.3232-22.528s10.0352-22.528 22.3232-22.528h241.0496c12.288 0 22.3232 10.1376 22.3232 22.528s-10.0352 22.528-22.3232 22.528z m0-113.664H391.9872c-12.288 0-22.3232-10.1376-22.3232-22.528s10.0352-22.528 22.3232-22.528h241.0496c12.288 0 22.3232 10.1376 22.3232 22.528s-10.0352 22.528-22.3232 22.528z m0-113.7664H391.9872c-12.288 0-22.3232-10.1376-22.3232-22.528s10.0352-22.528 22.3232-22.528h241.0496c12.288 0 22.3232 10.1376 22.3232 22.528s-10.0352 22.528-22.3232 22.528z"  /></svg>