<?xml version="1.0" encoding="iso-8859-1"?>
<!-- Generator: Adobe Illustrator 18.0.0, SVG Export Plug-In . SVG Version: 6.00 Build 0)  -->
<!DOCTYPE svg PUBLIC "-//W3C//DTD SVG 1.1//EN" "http://www.w3.org/Graphics/SVG/1.1/DTD/svg11.dtd">
<svg version="1.1" id="Capa_1" xmlns="http://www.w3.org/2000/svg" xmlns:xlink="http://www.w3.org/1999/xlink" x="0px" y="0px"
	 viewBox="0 0 430 430" style="enable-background:new 0 0 430 430;" xml:space="preserve">
<g>
	<path d="M323.423,111.047c-4.114,0-8.213,0.234-12.277,0.703c-4.898-20.225-15.654-38.646-31.177-53.025
		c-19.752-18.294-45.464-28.369-72.401-28.369c-49.559,0-91.801,33.842-103.422,80.719C46.495,112.367,0,159.668,0,217.623
		c0,58.77,47.81,106.58,106.577,106.58h19.91c5.509,8.814,11.634,17.236,18.354,25.219c26.339,31.287,52.815,45.273,55.731,46.757
		c4.446,2.268,9.436,3.466,14.428,3.466c4.964,0,9.928-1.185,14.339-3.42c2.935-1.483,29.436-15.397,55.808-46.682
		c6.757-8.016,12.914-16.479,18.447-25.34h19.829c58.767,0,106.577-47.81,106.577-106.58
		C430,158.857,382.19,111.047,323.423,111.047z M303.335,280.381c-8.076,20.565-19.341,39.498-33.48,56.272
		c-24.194,28.701-48.514,41.204-49.538,41.722c-1.671,0.847-3.494,1.27-5.317,1.27c-1.833,0-3.666-0.428-5.343-1.283
		c-1.023-0.521-25.331-13.092-49.517-41.82c-14.137-16.793-25.399-35.728-33.475-56.28c-10.049-25.573-15.145-53.683-15.145-83.547
		c0-5.293,3.533-9.936,8.635-11.348c62.144-17.179,86.997-37.796,87.241-38.003c4.422-3.741,10.821-3.783,15.208,0
		c0.207,0.173,25.819,21.024,87.241,38.003c5.102,1.412,8.635,6.055,8.635,11.348C318.479,226.643,313.384,254.793,303.335,280.381z
		"/>
	<path d="M178.152,321.377c14.709,17.474,29.27,28.009,36.841,32.839L215,170.838c-11.589,7.649-36.918,21.957-79.774,34.699
		C136.881,250.547,151.301,289.482,178.152,321.377z"/>
</g>
<g>
</g>
<g>
</g>
<g>
</g>
<g>
</g>
<g>
</g>
<g>
</g>
<g>
</g>
<g>
</g>
<g>
</g>
<g>
</g>
<g>
</g>
<g>
</g>
<g>
</g>
<g>
</g>
<g>
</g>
</svg>
